<?xml version="1.0" standalone="no"?>
<!DOCTYPE svg PUBLIC "-//W3C//DTD SVG 20010904//EN"
 "http://www.w3.org/TR/2001/REC-SVG-20010904/DTD/svg10.dtd">
<svg version="1.0" xmlns="http://www.w3.org/2000/svg"
 width="1181.000000pt" height="1181.000000pt" viewBox="0 0 1181.000000 1181.000000"
 preserveAspectRatio="xMidYMid meet">
<metadata>
Created by potrace 1.11, written by Peter Selinger 2001-2013
</metadata>
<g transform="translate(0.000000,1181.000000) scale(0.100000,-0.100000)"
fill="#000000" stroke="none">
<path d="M5455 11799 c-1275 -102 -2447 -590 -3415 -1423 -247 -212 -567 -547
-782 -819 -383 -483 -712 -1080 -925 -1677 -175 -493 -286 -1030 -324 -1564
-15 -225 -7 -820 15 -1016 136 -1217 583 -2268 1362 -3205 135 -162 528 -557
694 -697 941 -792 2025 -1250 3270 -1380 171 -18 939 -18 1110 0 927 97 1762
374 2515 835 1429 873 2417 2293 2734 3927 78 404 96 614 96 1125 0 284 -4
472 -13 555 -118 1128 -507 2128 -1165 3000 -178 236 -307 381 -551 626 -511
510 -1012 863 -1671 1175 -574 272 -1205 447 -1895 525 -169 19 -875 28 -1055
13z m760 -169 c681 -40 1283 -177 1900 -430 176 -73 549 -261 715 -360 1500
-901 2507 -2404 2749 -4100 45 -311 54 -461 55 -830 0 -369 -11 -538 -55 -840
-202 -1390 -910 -2656 -1994 -3565 -813 -681 -1797 -1122 -2845 -1274 -302
-44 -471 -55 -840 -55 -369 1 -519 10 -830 55 -1482 211 -2838 1017 -3749
2229 -350 465 -618 961 -818 1514 -249 688 -366 1497 -323 2242 47 802 231
1511 575 2209 296 602 617 1048 1099 1531 308 307 563 518 891 735 405 269
895 507 1350 657 678 224 1420 323 2120 282z"/>
<path d="M5745 11204 c-27 -19 -51 -38 -53 -43 -2 -5 25 -1 58 10 34 10 70 19
81 19 22 0 23 4 9 31 -15 27 -38 23 -95 -17z"/>
<path d="M5683 11110 c-171 -35 -260 -203 -185 -351 65 -130 224 -174 369
-103 66 32 109 83 129 153 26 86 2 182 -58 238 -54 51 -171 80 -255 63z m130
-44 c43 -17 93 -76 106 -123 17 -59 13 -143 -8 -189 -28 -61 -72 -88 -151 -92
-79 -3 -128 21 -175 86 -28 41 -30 49 -30 137 0 107 12 133 81 172 45 26 127
31 177 9z"/>
<path d="M6080 11111 c0 -4 11 -13 25 -19 13 -6 27 -22 30 -34 3 -13 23 -108
45 -213 48 -226 48 -225 64 -225 7 0 42 53 76 118 102 188 117 214 123 205 2
-4 23 -78 46 -163 48 -180 57 -204 72 -194 6 4 58 103 115 220 83 172 107 214
123 214 11 0 22 4 25 9 7 11 -44 21 -103 20 -40 0 -43 -2 -23 -11 12 -6 22
-15 22 -21 0 -16 -132 -307 -139 -307 -4 0 -26 75 -50 168 -47 179 -58 209
-71 196 -5 -5 -49 -85 -98 -178 l-90 -168 -11 53 c-18 89 -51 272 -51 285 0 6
10 15 23 18 21 7 21 7 2 15 -29 12 -155 22 -155 12z"/>
<path d="M5250 11069 c-63 -10 -151 -22 -195 -26 l-80 -8 -3 -42 c-2 -26 1
-43 7 -43 6 0 11 6 11 14 0 21 16 28 90 41 l67 11 27 -200 28 -200 -24 -19
c-23 -18 -23 -18 37 -12 85 8 115 15 115 26 0 5 -11 9 -24 9 -14 0 -27 4 -30
8 -6 10 -56 347 -56 378 0 19 7 22 67 29 61 6 68 5 83 -14 8 -12 18 -20 21
-17 9 10 -3 86 -15 85 -6 -1 -63 -10 -126 -20z"/>
<path d="M4783 10992 c-74 -20 -89 -32 -40 -32 21 0 37 -2 37 -4 0 -2 20 -74
45 -161 25 -87 44 -160 42 -161 -1 -2 -23 10 -47 25 -139 86 -421 243 -427
237 -4 -4 15 -91 42 -194 64 -247 63 -241 34 -263 -30 -23 -15 -24 65 -3 71
18 94 34 49 34 -24 0 -33 6 -41 28 -17 42 -84 283 -80 287 1 2 73 -38 158 -87
203 -118 300 -169 310 -163 4 3 -17 102 -47 222 l-54 217 23 18 c28 22 14 22
-69 0z"/>
<path d="M7450 10953 c0 -4 9 -14 20 -21 25 -15 26 -8 -53 -252 -71 -221 -81
-244 -108 -237 -12 3 -19 1 -17 -5 2 -6 42 -24 88 -39 97 -33 90 -32 90 -21 0
5 -11 14 -25 20 -14 7 -25 20 -25 31 0 25 117 395 136 434 10 19 22 27 40 27
41 0 19 17 -54 41 -37 12 -73 24 -79 27 -7 2 -13 0 -13 -5z"/>
<path d="M4161 10811 c-8 -5 -65 -28 -128 -52 -62 -23 -113 -46 -113 -51 0 -4
11 -6 24 -2 30 7 35 -2 109 -196 68 -183 70 -190 50 -212 -22 -24 -15 -23 96
17 150 55 161 61 161 89 0 54 -26 77 -32 29 -2 -22 -13 -33 -48 -50 -74 -37
-89 -30 -127 57 -17 41 -32 80 -32 87 -1 11 78 43 107 43 8 0 21 -8 29 -17 12
-16 13 -13 7 27 -8 58 -13 64 -32 46 -17 -14 -106 -56 -121 -56 -13 0 -64 151
-55 160 5 4 34 15 64 24 51 15 56 15 67 -1 18 -24 26 -11 16 28 -10 36 -20 43
-42 30z"/>
<path d="M7781 10718 c-160 -368 -161 -370 -188 -365 -44 8 -22 -13 44 -43 64
-29 97 -32 60 -6 -9 7 -17 23 -17 35 0 19 111 304 116 298 1 -1 43 -106 94
-234 89 -224 112 -274 124 -262 3 3 45 95 94 204 83 186 91 200 118 205 28 5
27 7 -28 32 -31 14 -67 29 -80 33 -22 7 -22 6 4 -19 l28 -26 -19 -48 c-35 -89
-93 -227 -103 -246 -8 -15 -27 25 -99 210 -121 312 -117 304 -148 232z"/>
<path d="M3633 10575 c-62 -17 -293 -131 -293 -145 0 -5 13 -7 29 -4 29 6 30
6 122 -180 91 -182 92 -186 74 -206 -25 -28 -16 -26 78 19 45 21 100 47 122
57 58 27 138 111 153 160 38 129 -29 263 -149 298 -62 19 -68 19 -136 1z m105
-60 c51 -22 81 -52 108 -110 54 -113 17 -201 -109 -264 -52 -26 -73 -32 -85
-25 -20 12 -180 310 -181 336 -1 18 32 39 98 63 49 18 124 18 169 0z"/>
<path d="M8363 10472 c10 -10 17 -24 17 -32 0 -16 -175 -324 -193 -338 -6 -5
-23 -12 -37 -14 -22 -3 -15 -9 47 -46 75 -44 115 -56 73 -21 l-25 21 45 85
c25 47 50 87 56 90 12 4 94 -42 105 -60 4 -5 4 -18 2 -28 -8 -30 10 -22 35 16
27 42 27 45 5 45 -10 0 -44 15 -75 33 l-57 33 41 69 c22 39 42 72 44 74 2 2
29 -12 61 -31 45 -26 59 -40 63 -63 l5 -30 24 33 c13 18 21 35 19 38 -13 12
-250 144 -260 144 -6 0 -4 -8 5 -18z"/>
<path d="M3169 10333 c-74 -49 -81 -56 -43 -49 31 7 33 4 103 -98 113 -167
128 -212 91 -274 -41 -66 -128 -92 -192 -54 -17 10 -66 70 -116 145 -78 115
-85 130 -73 148 21 35 5 32 -63 -13 -71 -47 -81 -61 -38 -52 26 5 32 -1 86
-83 77 -116 122 -171 160 -194 94 -57 264 25 294 142 17 68 1 111 -106 272
-59 87 -65 101 -53 119 20 32 9 30 -50 -9z"/>
<path d="M8690 10174 c-126 -55 -186 -200 -131 -319 40 -87 147 -162 245 -172
101 -10 212 58 252 153 21 49 18 130 -6 180 -26 52 -106 129 -163 154 -51 24
-147 26 -197 4z m232 -60 c85 -60 106 -165 52 -263 -82 -152 -233 -173 -330
-45 -26 34 -29 45 -29 113 0 70 3 81 34 129 47 74 100 104 174 99 43 -2 67
-10 99 -33z"/>
<path d="M2705 10011 c-57 -56 -260 -221 -272 -221 -17 0 -16 -12 4 -55 20
-43 33 -45 33 -5 0 21 11 39 41 67 22 21 46 41 53 45 8 4 52 -41 123 -125 140
-168 148 -180 133 -206 -6 -12 -8 -21 -5 -21 10 0 135 103 135 112 0 11 -18
10 -25 -2 -17 -28 -50 -1 -169 141 -142 170 -139 157 -55 215 34 23 43 25 64
16 33 -15 32 0 -2 38 l-28 31 -30 -30z"/>
<path d="M9240 9881 c0 -6 5 -13 10 -16 28 -18 -4 -62 -184 -252 -68 -73 -81
-82 -105 -77 -21 5 -14 -5 39 -54 36 -33 67 -56 69 -50 2 5 -2 15 -8 21 -20
20 -11 41 41 100 l51 58 32 -31 31 -30 -4 -113 c-2 -61 0 -121 5 -133 4 -12
43 -59 87 -105 69 -74 78 -80 72 -53 -7 29 -3 33 110 112 64 46 118 81 120 79
3 -2 -11 -41 -31 -87 -31 -73 -95 -245 -95 -256 0 -10 49 -1 205 37 92 22 169
39 170 37 2 -2 -48 -56 -112 -121 l-115 -118 40 -52 c22 -29 56 -78 76 -109
39 -62 53 -71 52 -36 -1 17 8 24 49 34 83 22 90 20 135 -45 22 -33 40 -63 40
-66 0 -12 -80 -124 -95 -132 -12 -7 -7 -19 23 -66 20 -31 40 -57 44 -57 4 0 4
15 1 34 -6 41 -7 39 140 264 66 100 117 186 113 190 -4 3 -113 -15 -243 -41
-157 -31 -241 -43 -252 -37 -26 14 -55 74 -45 92 5 9 71 84 147 166 75 83 137
155 137 161 0 16 -9 15 -217 -36 -106 -26 -195 -45 -197 -42 -3 3 28 90 69
195 76 193 83 214 65 214 -6 0 -91 -54 -190 -120 -99 -66 -186 -120 -195 -120
-41 0 -64 107 -51 233 l7 65 50 6 c61 8 115 52 125 101 9 51 -19 96 -116 185
-87 79 -100 89 -100 71z m140 -151 c29 -54 -5 -141 -65 -166 -41 -17 -68 -8
-109 34 -33 35 -33 35 49 124 l60 66 27 -20 c16 -11 33 -28 38 -38z m763
-1002 c-20 -34 -95 -138 -99 -138 -2 0 -19 23 -39 52 l-35 52 88 22 c48 12 88
22 90 23 2 0 0 -5 -5 -11z"/>
<path d="M5208 9765 c-339 -53 -508 -225 -508 -519 0 -151 49 -267 159 -377
90 -89 174 -139 321 -190 l106 -36 -48 -59 c-121 -148 -216 -320 -264 -479
-26 -83 -28 -104 -28 -260 -1 -166 0 -172 31 -265 55 -162 145 -295 296 -436
45 -42 77 -79 70 -81 -6 -2 -64 -40 -130 -85 -609 -414 -941 -899 -1012 -1478
-23 -183 -8 -455 34 -623 68 -268 178 -467 368 -664 203 -210 418 -333 716
-409 220 -57 475 -67 986 -39 606 33 736 18 860 -96 138 -127 193 -337 150
-573 -35 -195 -149 -367 -295 -445 -92 -49 -163 -65 -285 -65 -125 0 -208 15
-408 75 -169 52 -243 58 -318 30 -152 -58 -220 -209 -165 -371 36 -105 166
-201 331 -245 91 -25 291 -30 405 -11 168 27 330 90 465 180 304 205 470 459
547 838 20 99 23 142 23 353 -1 266 -13 352 -76 532 -126 357 -334 541 -679
598 -123 21 -381 17 -710 -11 -272 -23 -603 -23 -748 -1 -210 33 -371 92 -498
182 -164 117 -290 327 -324 538 -16 97 -8 333 14 437 84 386 325 738 730 1062
161 129 330 241 352 234 42 -12 302 -36 502 -46 499 -25 844 36 1039 181 148
111 145 285 -6 360 -88 44 -156 54 -381 54 -393 -1 -723 -78 -1109 -261 l-121
-57 -42 29 c-74 51 -177 154 -225 226 -206 311 -150 712 147 1058 l59 68 93 6
c417 29 708 119 993 307 243 161 367 353 326 507 -15 56 -61 106 -109 120
-101 31 -297 4 -468 -63 -243 -96 -563 -312 -809 -547 l-100 -96 -75 19 c-168
42 -295 131 -346 241 -25 55 -28 75 -28 153 0 78 3 97 26 141 50 95 143 157
284 190 38 9 75 18 82 20 8 2 12 28 12 84 l0 80 -62 -1 c-35 -1 -102 -7 -150
-14z"/>
<path d="M2219 9698 c-85 -66 -115 -139 -83 -204 36 -72 57 -79 216 -77 161 3
189 -5 208 -61 29 -89 -84 -182 -158 -130 -41 28 -37 5 5 -38 l42 -42 47 30
c25 16 61 49 78 72 39 55 44 134 10 178 -48 65 -61 69 -223 66 -133 -2 -150
-1 -171 16 -39 31 -33 86 13 128 38 35 64 41 99 23 35 -19 33 0 -3 37 l-36 35
-44 -33z"/>
<path d="M1665 8856 c-93 -43 -175 -167 -175 -265 0 -132 112 -244 244 -244
178 0 317 216 246 381 -55 129 -194 185 -315 128z m151 -65 c50 -23 110 -75
130 -112 37 -72 2 -182 -74 -230 -131 -83 -342 20 -342 166 0 71 52 153 115
181 43 19 123 17 171 -5z"/>
<path d="M10332 8562 c-30 -9 -30 -25 -1 -32 19 -5 87 -98 89 -121 0 -11 -337
-189 -358 -189 -11 0 -22 6 -25 13 -2 6 -7 9 -11 5 -7 -6 71 -158 80 -158 3 0
2 15 -1 33 -5 26 -2 35 16 46 42 25 328 181 333 181 11 0 56 -100 56 -123 0
-13 -5 -28 -12 -35 -9 -9 -9 -12 0 -12 14 0 72 28 72 35 0 2 -38 74 -85 159
-46 86 -87 167 -91 181 -6 25 -19 29 -62 17z"/>
<path d="M1292 8298 c-21 -27 -73 -140 -67 -146 4 -4 11 1 16 11 14 25 30 22
119 -23 79 -39 79 -40 82 -82 4 -53 30 -60 38 -11 l5 32 75 -43 c60 -34 75
-47 73 -64 -5 -45 14 -18 82 114 l70 135 -30 25 c-37 29 -67 34 -42 6 10 -10
17 -29 17 -43 -1 -34 -51 -123 -73 -127 -10 -2 -53 13 -95 33 l-78 36 4 65 c4
60 3 64 -17 64 -19 0 -21 -6 -21 -54 l0 -53 -76 39 c-72 38 -76 42 -70 69 6
32 4 35 -12 17z"/>
<path d="M10580 8126 c0 -25 -19 -62 -72 -145 -77 -117 -92 -130 -210 -172
-35 -12 -39 -11 -53 7 -25 34 -18 -7 15 -80 32 -70 49 -85 42 -36 -4 28 -1 31
64 61 38 17 80 33 94 35 14 3 81 -6 150 -20 97 -19 129 -30 143 -47 28 -35 32
-14 7 43 -27 65 -26 63 -44 46 -12 -13 -27 -13 -120 1 -58 8 -106 19 -106 24
0 4 28 49 62 98 47 67 67 89 80 85 23 -5 23 -9 -9 69 -30 72 -43 82 -43 31z"/>
<path d="M1215 7974 c-93 -34 -177 -163 -178 -273 0 -108 69 -212 162 -239 95
-29 186 -6 253 64 109 114 113 280 10 383 -74 74 -161 97 -247 65z m184 -100
c67 -36 93 -73 99 -140 5 -64 -23 -132 -72 -169 -130 -99 -356 -5 -356 148 0
73 51 153 115 183 49 23 152 13 214 -22z"/>
<path d="M10794 7627 c8 -34 3 -37 -192 -96 -212 -65 -209 -65 -221 -44 -21
38 -21 2 -1 -66 24 -78 40 -99 40 -52 0 27 5 31 53 49 28 11 61 22 72 25 11 3
30 8 43 12 20 6 16 -7 -42 -117 -35 -69 -67 -141 -71 -160 -7 -36 20 -156 32
-145 3 3 6 26 8 51 2 33 23 89 74 192 l71 146 32 -20 c18 -10 72 -42 120 -71
48 -28 90 -61 93 -71 6 -20 25 -28 25 -12 0 5 -7 31 -16 58 -17 50 -34 78 -34
56 0 -7 -5 -12 -11 -12 -14 0 -219 113 -219 121 0 7 140 49 163 49 8 0 18 -7
21 -16 4 -9 9 -14 12 -11 8 8 -35 145 -48 153 -7 5 -9 -1 -4 -19z"/>
<path d="M858 7465 c-5 -9 -38 -130 -38 -141 0 -3 9 -3 19 1 17 5 32 -14 95
-122 41 -70 74 -128 73 -130 -4 -3 -183 43 -196 51 -6 4 -11 19 -11 34 0 44
-18 12 -40 -68 -23 -86 -23 -90 -11 -90 5 0 11 9 14 20 3 11 12 22 20 25 15 6
398 -87 454 -110 19 -8 33 -20 31 -27 -2 -7 1 -14 6 -16 11 -3 48 136 43 158
-3 10 -8 6 -15 -12 -8 -19 -19 -28 -34 -28 -24 0 -206 45 -214 53 -2 2 50 35
117 72 157 89 204 131 224 198 22 73 19 102 -5 56 -25 -47 -64 -78 -229 -179
-133 -81 -134 -82 -150 -61 -37 49 -136 249 -141 286 -3 22 -8 36 -12 30z"/>
<path d="M10938 7098 c-3 -25 -24 -31 -277 -83 -116 -25 -124 -25 -142 -9 -26
23 -25 15 6 -123 7 -32 23 -29 27 5 3 25 9 28 90 49 48 12 137 32 199 45 109
23 111 23 125 4 23 -32 25 -13 8 62 -16 72 -30 91 -36 50z"/>
<path d="M973 6030 c-27 -11 -27 -7 -8 -60 8 -23 15 -44 15 -46 0 -1 -19 8
-42 21 -68 39 -87 33 -72 -22 5 -20 13 -23 53 -23 l46 0 -49 -46 c-40 -36 -47
-47 -35 -55 35 -22 59 -10 80 39 l21 47 19 -43 c22 -51 44 -62 71 -35 l20 20
-41 29 c-22 16 -41 32 -41 36 0 4 24 8 53 10 49 3 52 5 49 28 -4 40 -17 43
-61 14 -23 -15 -43 -25 -46 -22 -3 2 0 20 5 39 21 72 12 89 -37 69z"/>
<path d="M10803 6030 c-13 -5 -23 -11 -23 -12 0 -2 7 -24 15 -51 l14 -47 -43
25 c-51 30 -76 32 -76 6 0 -42 11 -51 58 -51 l47 0 -50 -46 c-40 -36 -47 -47
-35 -54 35 -22 58 -11 80 38 l21 47 21 -48 c16 -37 26 -47 41 -45 11 2 25 11
31 21 9 16 7 22 -13 35 -14 10 -34 25 -45 34 -20 17 -19 17 36 18 31 0 60 4
63 10 5 8 -7 43 -20 58 -2 2 -22 -9 -44 -24 -23 -15 -43 -25 -46 -22 -3 2 0
20 5 39 21 72 12 89 -37 69z"/>
<path d="M1330 4940 c0 -33 19 -25 -219 -90 -135 -37 -158 -48 -199 -94 -89
-101 -27 -299 106 -336 57 -15 75 -13 255 32 165 42 169 43 183 24 22 -30 23
-16 5 56 -17 72 -31 96 -31 56 0 -14 -6 -30 -13 -36 -7 -6 -86 -29 -175 -52
-176 -46 -227 -47 -275 -10 -57 45 -73 134 -34 191 34 50 87 75 258 119 l154
39 18 -21 c10 -11 19 -19 21 -17 7 7 -37 169 -46 169 -4 0 -8 -13 -8 -30z"/>
<path d="M10610 4874 c-114 -49 -176 -198 -138 -328 17 -58 90 -128 150 -145
70 -20 148 -10 205 25 85 53 132 185 103 289 -36 129 -201 211 -320 159z m199
-89 c69 -34 96 -76 96 -145 -1 -67 -29 -118 -83 -152 -55 -34 -168 -33 -237 3
-87 44 -117 134 -76 224 10 22 28 48 39 58 58 52 172 58 261 12z"/>
<path d="M10337 4253 c-91 -151 -94 -275 -8 -366 56 -61 157 -90 237 -68 93
25 189 156 201 275 l5 52 -83 35 c-66 27 -84 39 -90 59 -6 23 -8 21 -29 -25
-36 -82 -40 -95 -29 -95 5 0 12 7 16 16 7 20 39 15 118 -20 54 -24 57 -27 50
-53 -17 -71 -61 -130 -117 -159 -128 -66 -308 24 -308 155 0 91 82 209 137
198 36 -7 27 10 -17 33 -21 11 -41 20 -44 20 -2 0 -20 -26 -39 -57z"/>
<path d="M1247 4216 c-192 -78 -199 -80 -213 -62 -24 34 -24 12 0 -48 27 -65
52 -99 41 -54 -5 21 -2 30 17 42 21 13 200 95 256 117 26 10 28 18 -48 -151
-76 -166 -129 -305 -122 -312 5 -5 99 29 210 74 196 80 202 82 217 63 12 -17
14 -17 15 -4 0 18 -47 129 -55 129 -3 0 -4 -14 -3 -31 3 -32 3 -32 -141 -95
-79 -35 -146 -62 -149 -60 -2 3 39 101 91 218 98 221 109 249 92 253 -5 2 -99
-34 -208 -79z"/>
<path d="M10075 3680 c-33 -65 -56 -122 -53 -126 4 -4 10 1 14 10 3 9 13 16
22 16 17 0 290 -140 335 -172 20 -14 26 -25 22 -39 -8 -24 10 -25 19 -1 4 9
32 62 63 116 l57 99 -30 23 c-16 13 -32 24 -36 24 -11 0 -10 -18 2 -25 6 -3
10 -15 10 -26 0 -28 -38 -99 -57 -106 -18 -7 -163 66 -163 82 0 6 11 28 23 50
16 28 29 40 45 39 12 0 22 3 22 7 0 8 -60 53 -63 48 -2 -2 -16 -32 -32 -66
-16 -35 -30 -63 -32 -63 -12 0 -143 72 -143 78 0 5 14 30 30 56 24 37 35 47
50 43 11 -3 20 -1 20 3 0 8 -54 51 -62 49 -1 0 -30 -54 -63 -119z"/>
<path d="M1675 3747 c6 -22 -6 -30 -147 -105 -205 -108 -204 -108 -223 -92 -8
7 -18 11 -21 8 -8 -9 60 -138 74 -138 10 0 10 5 1 22 -15 28 -6 35 197 139
136 70 166 81 173 69 6 -8 13 -12 16 -8 8 8 -53 128 -65 128 -6 0 -8 -10 -5
-23z"/>
<path d="M1785 3521 c5 -26 -8 -47 -134 -205 -78 -97 -141 -180 -141 -186 0
-16 28 -12 171 20 74 17 150 35 170 39 l37 8 -109 -152 c-60 -84 -109 -155
-109 -159 0 -14 54 -4 230 45 191 52 231 59 264 44 19 -8 19 -8 0 23 -10 18
-29 45 -42 60 -22 25 -23 26 -19 4 3 -14 -1 -25 -11 -31 -25 -13 -303 -94
-307 -89 -2 2 43 68 101 147 57 79 104 148 104 152 0 15 -33 10 -195 -27 -85
-19 -160 -34 -165 -32 -5 2 38 58 96 126 85 99 109 122 125 117 27 -9 24 0
-18 67 -42 64 -58 74 -48 29z"/>
<path d="M9905 3384 c-36 -56 -40 -79 -10 -54 13 11 29 4 103 -40 202 -123
252 -161 252 -187 0 -13 4 -22 8 -19 16 9 84 127 78 133 -3 4 -12 -2 -20 -12
-18 -25 -36 -17 -216 98 -117 75 -145 97 -144 115 1 35 -13 26 -51 -34z"/>
<path d="M9776 3186 c-37 -45 -45 -68 -24 -63 12 2 27 -63 43 -192 l7 -54 -44
33 c-78 61 -98 83 -92 102 10 34 -11 18 -53 -40 -38 -52 -50 -83 -21 -54 7 7
18 12 25 12 14 0 278 -196 307 -228 10 -12 16 -28 13 -37 -4 -8 -2 -15 3 -15
15 0 94 110 85 118 -4 4 -10 1 -12 -5 -9 -24 -40 -13 -112 41 l-73 55 34 5
c18 3 74 10 123 16 50 6 104 15 122 21 30 9 103 79 103 97 0 5 -21 -1 -47 -14
-32 -15 -96 -30 -188 -43 -77 -11 -141 -19 -142 -17 -10 10 -30 243 -22 268 5
18 7 33 5 35 -2 2 -20 -16 -40 -41z"/>
<path d="M2243 2881 c2 -32 -6 -40 -141 -158 -116 -101 -149 -124 -168 -120
-13 2 -24 1 -24 -2 0 -6 121 -154 155 -190 11 -12 19 -10 49 9 37 22 41 49 5
30 -13 -7 -25 -7 -37 -1 -24 13 -72 75 -72 94 0 18 126 130 138 123 5 -3 21
-23 36 -45 20 -28 26 -46 21 -61 -6 -19 -4 -20 12 -12 60 33 60 35 4 87 -28
26 -51 51 -51 55 0 4 27 31 60 59 67 59 68 59 115 -10 22 -30 25 -43 17 -51
-14 -14 -16 -28 -4 -28 4 1 20 11 36 24 l29 24 -66 74 c-36 40 -77 87 -91 103
l-26 30 3 -34z"/>
<path d="M9428 2760 c-28 -24 -53 -58 -63 -85 -16 -42 -16 -46 1 -82 13 -25
32 -45 58 -57 38 -19 43 -19 140 -3 112 18 139 12 165 -33 12 -23 12 -30 -3
-62 -10 -20 -32 -43 -51 -54 -30 -16 -40 -17 -67 -6 -17 6 -34 9 -37 7 -9 -9
52 -65 71 -65 29 0 105 77 124 125 19 51 9 98 -30 134 -40 38 -81 43 -182 25
-103 -19 -140 -14 -156 22 -24 53 56 139 105 112 32 -17 32 1 1 33 l-30 30
-46 -41z"/>
<path d="M2525 2570 c17 -19 17 -21 -8 -52 -14 -18 -78 -86 -141 -151 -97
-100 -118 -118 -136 -112 -31 10 -23 -3 36 -58 56 -52 73 -60 49 -23 -15 22
-14 26 23 72 63 80 68 82 102 48 l30 -29 -11 -95 c-13 -118 -8 -145 38 -192
41 -42 63 -50 41 -15 -24 37 -28 71 -22 175 l7 100 44 6 c24 3 57 13 73 21 51
26 75 98 49 148 -17 33 -161 177 -178 177 -11 0 -10 -4 4 -20z m99 -111 c48
-56 24 -139 -50 -174 -33 -16 -41 -16 -63 -4 -13 8 -33 26 -44 41 l-20 27 62
70 c35 39 69 71 76 71 7 0 25 -14 39 -31z"/>
<path d="M9170 2480 c-32 -28 -48 -49 -39 -50 8 0 20 5 27 12 10 10 31 -7 97
-77 47 -50 99 -107 116 -127 l31 -38 -29 5 c-43 8 -391 35 -445 35 -27 0 -48
-3 -48 -6 0 -3 63 -78 141 -166 131 -149 140 -162 133 -190 l-6 -31 56 48 c59
52 71 72 32 54 -14 -7 -30 -8 -39 -3 -27 16 -208 219 -198 222 5 2 94 -4 196
-12 206 -18 291 -20 298 -8 3 4 -58 79 -135 167 -123 141 -139 163 -134 187 3
16 4 28 3 28 -1 0 -27 -23 -57 -50z"/>
<path d="M8994 2499 c-12 -20 -42 -128 -37 -133 5 -5 77 99 82 119 4 13 -37
26 -45 14z"/>
<path d="M2846 2189 c-47 -41 -52 -76 -27 -183 12 -48 21 -98 21 -112 0 -36
-34 -64 -76 -64 -65 0 -130 90 -92 128 6 6 8 15 4 19 -8 8 -66 -51 -66 -67 0
-18 63 -81 101 -101 60 -30 112 -25 155 14 47 43 53 88 25 188 -12 42 -21 89
-21 106 0 59 63 82 114 42 34 -27 46 -57 35 -86 -11 -29 2 -29 29 0 31 32 28
50 -15 87 -75 66 -135 76 -187 29z"/>
<path d="M3156 2026 c13 -21 15 -49 12 -163 l-3 -138 -46 -65 c-35 -50 -51
-64 -67 -63 -12 2 -22 -1 -22 -5 0 -11 131 -94 138 -87 3 3 -3 12 -14 19 -23
17 -16 42 39 127 34 54 41 58 152 109 97 43 122 51 153 46 l37 -6 -27 23 c-15
12 -41 31 -58 40 -29 18 -30 18 -30 -2 0 -16 -22 -32 -98 -70 l-97 -49 4 111
c2 83 7 114 18 122 12 9 5 17 -37 43 -62 38 -76 40 -54 8z"/>
<path d="M8627 2036 c-120 -43 -187 -133 -187 -250 1 -68 27 -123 83 -172 98
-86 218 -83 321 7 60 53 86 109 86 185 0 168 -152 283 -303 230z m142 -70 c95
-66 139 -203 91 -281 -28 -45 -91 -78 -150 -78 -116 0 -228 121 -218 238 5 64
33 105 90 134 59 30 132 25 187 -13z"/>
<path d="M3535 1769 c-29 -35 -27 -46 4 -29 18 9 32 6 81 -16 33 -15 60 -29
60 -32 0 -3 -41 -83 -91 -178 -80 -151 -94 -173 -117 -176 -23 -3 -17 -9 47
-41 74 -39 103 -43 61 -9 l-23 18 82 161 c45 88 87 168 94 177 11 14 17 13 65
-14 41 -24 52 -36 52 -55 0 -14 5 -25 10 -25 11 0 47 68 39 72 -2 2 -61 31
-130 65 -69 35 -142 74 -163 88 -20 14 -39 25 -41 25 -2 0 -15 -14 -30 -31z"/>
<path d="M8088 1711 c-73 -39 -83 -51 -42 -48 31 2 43 -15 150 -222 58 -111
66 -132 54 -146 -26 -31 -1 -23 116 38 125 66 135 77 114 128 -14 32 -31 31
-23 -1 7 -27 -16 -51 -77 -80 -44 -21 -52 -22 -65 -9 -20 21 -175 311 -175
330 0 8 5 20 12 27 24 24 1 18 -64 -17z"/>
<path d="M4009 1552 l25 -20 -59 -143 c-86 -214 -100 -239 -127 -231 -21 5
-22 4 -9 -11 7 -9 18 -17 23 -17 5 0 51 -18 103 -40 52 -22 101 -40 109 -40
16 0 52 58 42 67 -3 3 -12 -2 -21 -11 -9 -9 -24 -16 -33 -16 -22 1 -98 35
-106 49 -9 14 54 171 68 171 6 0 30 -9 54 -20 29 -13 42 -25 42 -40 0 -31 14
-24 33 15 20 43 21 48 5 42 -10 -3 -113 28 -126 38 -4 3 49 138 58 148 4 5 29
-2 56 -15 39 -18 50 -29 54 -53 l6 -30 22 35 c12 19 22 37 22 40 -1 7 -209 91
-240 97 l-25 5 24 -20z"/>
<path d="M7720 1540 c-71 -31 -85 -46 -43 -45 26 0 31 -9 91 -145 89 -204 94
-221 75 -242 -23 -26 -11 -23 101 23 169 69 168 68 145 126 l-12 28 -9 -33
c-7 -28 -19 -38 -63 -59 -30 -13 -63 -23 -72 -21 -12 2 -41 57 -90 168 -40 91
-73 173 -73 183 0 10 7 20 15 23 15 6 21 25 8 23 -5 -1 -37 -14 -73 -29z"/>
<path d="M7375 1411 c-110 -38 -125 -46 -100 -51 29 -5 32 -11 78 -145 72
-209 78 -236 59 -257 -11 -13 -11 -18 -3 -18 23 0 241 72 246 81 8 13 -6 79
-16 79 -5 0 -9 -11 -9 -25 0 -21 -9 -30 -42 -45 -62 -28 -93 -26 -106 8 -21
53 -46 142 -41 146 3 3 26 11 51 17 43 12 49 11 68 -6 l22 -20 -7 40 c-10 56
-10 55 -55 34 -22 -11 -53 -22 -69 -25 -28 -6 -29 -4 -55 72 -14 43 -24 79
-22 81 2 2 29 9 61 15 51 11 58 11 69 -5 7 -9 16 -14 19 -11 7 7 -3 66 -12 74
-3 3 -64 -14 -136 -39z"/>
<path d="M4351 1411 c-32 -44 -28 -62 8 -39 15 9 32 9 75 -1 31 -7 58 -16 60
-20 5 -8 -84 -316 -103 -358 -6 -13 -19 -23 -31 -23 -38 0 -11 -18 59 -39 79
-24 81 -24 81 -12 0 5 -9 13 -20 16 -12 4 -20 15 -20 28 0 32 101 367 111 367
5 0 33 -9 64 -21 40 -15 55 -26 55 -39 0 -32 18 -31 29 2 15 44 14 58 -7 58
-24 0 -314 89 -329 101 -7 7 -18 1 -32 -20z"/>
<path d="M7075 1325 c-5 -2 -29 -9 -53 -15 -23 -6 -40 -15 -37 -20 3 -5 12 -7
20 -4 20 8 28 -14 75 -203 44 -179 47 -201 25 -209 -28 -11 -5 -22 28 -14 17
5 51 14 75 20 23 6 42 15 42 21 0 5 -11 7 -25 3 -31 -8 -32 -4 -85 207 -46
180 -46 187 -22 205 16 12 15 13 -8 13 -14 0 -29 -2 -35 -4z"/>
<path d="M4810 1295 c0 -4 8 -14 19 -23 18 -17 18 -19 0 -117 -29 -157 -33
-208 -20 -248 39 -118 233 -158 318 -66 29 32 49 89 69 197 26 142 32 162 55
162 35 0 11 17 -33 24 -24 4 -53 9 -65 13 -14 3 -23 1 -23 -6 0 -6 7 -11 15
-11 27 0 27 -25 0 -166 -30 -155 -43 -187 -88 -214 -39 -24 -64 -25 -115 -5
-77 31 -87 94 -49 295 20 101 25 116 47 127 27 13 21 18 -45 27 -22 3 -50 9
-62 12 -13 4 -23 3 -23 -1z"/>
<path d="M5658 1244 l34 -15 -7 -192 c-12 -339 -26 -408 -97 -458 -41 -29 -19
-37 26 -10 50 32 103 94 115 138 6 21 16 139 21 263 12 259 13 270 40 270 11
0 20 5 20 10 0 6 -37 10 -92 9 -90 -1 -92 -1 -60 -15z"/>
<path d="M6596 1230 c-173 -56 -224 -262 -96 -391 50 -50 102 -69 188 -69 62
0 181 36 189 56 3 9 1 53 -6 97 -11 80 -11 82 11 100 23 18 23 18 -27 12 -86
-10 -115 -17 -115 -25 0 -5 12 -10 28 -12 26 -3 28 -7 39 -78 15 -99 9 -105
-96 -105 -68 0 -83 3 -119 27 -22 15 -54 49 -69 75 -24 41 -28 59 -28 120 0
57 4 77 21 100 34 47 95 74 166 76 81 1 105 -7 129 -46 l20 -32 -3 55 -3 55
-85 2 c-61 2 -102 -3 -144 -17z"/>
<path d="M6035 1018 c-95 -281 -92 -275 -128 -289 -31 -13 -31 -14 37 -17 39
-2 74 2 80 8 7 7 5 10 -7 10 -22 0 -22 28 -1 95 17 52 18 53 62 59 98 13 100
13 132 -60 17 -36 30 -72 30 -80 0 -11 16 -14 65 -14 37 0 65 4 65 10 0 6 -9
10 -19 10 -31 0 -51 35 -147 244 -49 108 -94 196 -100 196 -6 0 -37 -78 -69
-172z m101 -23 l33 -75 -61 0 c-53 0 -60 2 -55 18 2 9 13 45 22 80 10 34 21
60 23 57 3 -3 20 -39 38 -80z"/>
</g>
</svg>
